<svg width="405" height="120" viewBox="0 0 405 120" fill="#F8F9F7" xmlns="http://www.w3.org/2000/svg">
<path d="M388.876 69.12C383.692 69.12 379.724 67.648 376.972 64.704C374.22 61.76 372.844 57.6 372.844 52.224V16.896C372.844 11.52 374.22 7.36 376.972 4.416C379.724 1.472 383.692 0 388.876 0C394.061 0 398.028 1.472 400.78 4.416C403.532 7.36 404.908 11.52 404.908 16.896V52.224C404.908 57.6 403.532 61.76 400.78 64.704C398.028 67.648 394.061 69.12 388.876 69.12ZM388.876 59.52C392.524 59.52 394.348 57.312 394.348 52.896V16.224C394.348 11.808 392.524 9.6 388.876 9.6C385.228 9.6 383.404 11.808 383.404 16.224V52.896C383.404 57.312 385.228 59.52 388.876 59.52Z" fill="#F8F9F7"/>
<path d="M347.559 69.12C342.375 69.12 338.407 67.648 335.655 64.704C332.903 61.76 331.527 57.6 331.527 52.224V16.896C331.527 11.52 332.903 7.36 335.655 4.416C338.407 1.472 342.375 0 347.559 0C352.743 0 356.711 1.472 359.463 4.416C362.215 7.36 363.591 11.52 363.591 16.896V52.224C363.591 57.6 362.215 61.76 359.463 64.704C356.711 67.648 352.743 69.12 347.559 69.12ZM347.559 59.52C351.207 59.52 353.031 57.312 353.031 52.896V16.224C353.031 11.808 351.207 9.6 347.559 9.6C343.911 9.6 342.087 11.808 342.087 16.224V52.896C342.087 57.312 343.911 59.52 347.559 59.52Z" fill="#F8F9F7"/>
<path d="M303.077 10.56H292.037V0.959991H324.677V10.56H313.637V68.16H303.077V10.56Z" fill="#F8F9F7"/>
<path d="M264.291 10.56H253.251V0.959991H285.891V10.56H274.851V68.16H264.291V10.56Z" fill="#F8F9F7"/>
<path d="M227.19 0.959991H241.494L252.438 68.16H241.878L239.958 54.816V55.008H227.958L226.038 68.16H216.246L227.19 0.959991ZM238.71 45.888L234.006 12.672H233.814L229.206 45.888H238.71Z" fill="#F8F9F7"/>
<path d="M193.843 10.56H182.803V0.959991H215.444V10.56H204.403V68.16H193.843V10.56Z" fill="#F8F9F7"/>
<path d="M160.717 69.12C155.597 69.12 151.725 67.68 149.101 64.8C146.477 61.856 145.165 57.664 145.165 52.224V48.384H155.149V52.992C155.149 57.344 156.973 59.52 160.621 59.52C162.413 59.52 163.757 59.008 164.653 57.984C165.613 56.896 166.093 55.168 166.093 52.8C166.093 49.984 165.453 47.52 164.173 45.408C162.893 43.232 160.525 40.64 157.069 37.632C152.717 33.792 149.677 30.336 147.949 27.264C146.221 24.128 145.357 20.608 145.357 16.704C145.357 11.392 146.701 7.296 149.389 4.416C152.077 1.472 155.981 0 161.101 0C166.157 0 169.965 1.472 172.525 4.416C175.149 7.296 176.461 11.456 176.461 16.896V19.68H166.477V16.224C166.477 13.92 166.029 12.256 165.133 11.232C164.237 10.144 162.925 9.6 161.197 9.6C157.677 9.6 155.917 11.744 155.917 16.032C155.917 18.464 156.557 20.736 157.837 22.848C159.181 24.96 161.581 27.52 165.037 30.528C169.453 34.368 172.493 37.856 174.157 40.992C175.821 44.128 176.653 47.808 176.653 52.032C176.653 57.536 175.277 61.76 172.525 64.704C169.837 67.648 165.901 69.12 160.717 69.12Z" fill="#F8F9F7"/>
<path d="M125.64 0.959991H136.2V68.16H125.64V0.959991Z" fill="#F8F9F7"/>
<path d="M83.01 0.959991H93.57V29.28L107.01 0.959991H117.57L104.994 25.632L117.762 68.16H106.722L97.794 38.208L93.57 46.752V68.16H83.01V0.959991Z" fill="#F8F9F7"/>
<path d="M49.7588 0.959991H64.0627L75.0068 68.16H64.4468L62.5268 54.816V55.008H50.5268L48.6068 68.16H38.8148L49.7588 0.959991ZM61.2788 45.888L56.5747 12.672H56.3827L51.7747 45.888H61.2788Z" fill="#F8F9F7"/>
<path d="M0 0.959991H15.648C21.088 0.959991 25.056 2.23999 27.552 4.79999C30.048 7.29599 31.296 11.168 31.296 16.416V20.544C31.296 27.52 28.992 31.936 24.384 33.792V33.984C26.944 34.752 28.736 36.32 29.76 38.688C30.848 41.056 31.392 44.224 31.392 48.192V60C31.392 61.92 31.456 63.488 31.584 64.704C31.712 65.856 32.032 67.008 32.544 68.16H21.792C21.408 67.072 21.152 66.048 21.024 65.088C20.896 64.128 20.832 62.4 20.832 59.904V47.616C20.832 44.544 20.32 42.4 19.296 41.184C18.336 39.968 16.64 39.36 14.208 39.36H10.56V68.16H0V0.959991ZM14.4 29.76C16.512 29.76 18.08 29.216 19.104 28.128C20.192 27.04 20.736 25.216 20.736 22.656V17.472C20.736 15.04 20.288 13.28 19.392 12.192C18.56 11.104 17.216 10.56 15.36 10.56H10.56V29.76H14.4Z" fill="#F8F9F7"/>
<path d="M394.888 119.64C392.328 119.64 390.376 118.92 389.032 117.48C387.688 116.008 387.016 113.912 387.016 111.192V93.528C387.016 90.808 387.688 88.728 389.032 87.288C390.376 85.816 392.328 85.08 394.888 85.08C397.448 85.08 399.4 85.816 400.744 87.288C402.088 88.728 402.76 90.808 402.76 93.528V96.408H397.768V93.192C397.768 90.984 396.856 89.88 395.032 89.88C393.208 89.88 392.296 90.984 392.296 93.192V111.576C392.296 113.752 393.208 114.84 395.032 114.84C396.856 114.84 397.768 113.752 397.768 111.576V105H395.128V100.2H402.76V111.192C402.76 113.912 402.088 116.008 400.744 117.48C399.4 118.92 397.448 119.64 394.888 119.64Z" fill="#F8F9F7"/>
<path d="M355.396 85.56H362.02L367.156 105.672H367.252V85.56H371.956V119.16H366.532L360.196 94.632H360.1V119.16H355.396V85.56Z" fill="#F8F9F7"/>
<path d="M334.641 85.56H339.921V119.16H334.641V85.56Z" fill="#F8F9F7"/>
<path d="M312.186 119.64C309.658 119.64 307.722 118.92 306.378 117.48C305.066 116.04 304.41 114.008 304.41 111.384V93.336C304.41 90.712 305.066 88.68 306.378 87.24C307.722 85.8 309.658 85.08 312.186 85.08C314.714 85.08 316.634 85.8 317.946 87.24C319.29 88.68 319.962 90.712 319.962 93.336V96.888H314.97V93C314.97 90.92 314.09 89.88 312.33 89.88C310.57 89.88 309.69 90.92 309.69 93V111.768C309.69 113.816 310.57 114.84 312.33 114.84C314.09 114.84 314.97 113.816 314.97 111.768V106.632H319.962V111.384C319.962 114.008 319.29 116.04 317.946 117.48C316.634 118.92 314.714 119.64 312.186 119.64Z" fill="#F8F9F7"/>
<path d="M273.867 85.56H281.691C284.411 85.56 286.395 86.2 287.643 87.48C288.891 88.728 289.515 90.664 289.515 93.288V95.352C289.515 98.84 288.363 101.048 286.059 101.976V102.072C287.339 102.456 288.235 103.24 288.747 104.424C289.291 105.608 289.563 107.192 289.563 109.176V115.08C289.563 116.04 289.595 116.824 289.659 117.432C289.723 118.008 289.883 118.584 290.139 119.16H284.763C284.571 118.616 284.443 118.104 284.379 117.624C284.315 117.144 284.283 116.28 284.283 115.032V108.888C284.283 107.352 284.027 106.28 283.515 105.672C283.035 105.064 282.187 104.76 280.971 104.76H279.147V119.16H273.867V85.56ZM281.067 99.96C282.123 99.96 282.907 99.688 283.419 99.144C283.963 98.6 284.235 97.688 284.235 96.408V93.816C284.235 92.6 284.011 91.72 283.563 91.176C283.147 90.632 282.475 90.36 281.547 90.36H279.147V99.96H281.067Z" fill="#F8F9F7"/>
<path d="M244.91 85.56H259.31V90.36H250.189V99.24H257.438V104.04H250.189V114.36H259.31V119.16H244.91V85.56Z" fill="#F8F9F7"/>
<path d="M224.155 85.56H229.435V119.16H224.155V85.56Z" fill="#F8F9F7"/>
<path d="M194.119 85.56H201.895C204.519 85.56 206.487 86.264 207.799 87.672C209.111 89.08 209.767 91.144 209.767 93.864V97.176C209.767 99.896 209.111 101.96 207.799 103.368C206.487 104.776 204.519 105.48 201.895 105.48H199.399V119.16H194.119V85.56ZM201.895 100.68C202.759 100.68 203.399 100.44 203.815 99.96C204.263 99.48 204.487 98.664 204.487 97.512V93.528C204.487 92.376 204.263 91.56 203.815 91.08C203.399 90.6 202.759 90.36 201.895 90.36H199.399V100.68H201.895Z" fill="#F8F9F7"/>
<path d="M149.349 104.856L142.965 85.56H148.581L152.181 97.896H152.277L155.877 85.56H161.013L154.629 104.856V119.16H149.349V104.856Z" fill="#F8F9F7"/>
<path d="M114.325 85.56H122.389C125.013 85.56 126.981 86.264 128.293 87.672C129.605 89.08 130.261 91.144 130.261 93.864V110.856C130.261 113.576 129.605 115.64 128.293 117.048C126.981 118.456 125.013 119.16 122.389 119.16H114.325V85.56ZM122.293 114.36C123.157 114.36 123.813 114.104 124.261 113.592C124.741 113.08 124.981 112.248 124.981 111.096V93.624C124.981 92.472 124.741 91.64 124.261 91.128C123.813 90.616 123.157 90.36 122.293 90.36H119.605V114.36H122.293Z" fill="#F8F9F7"/>
<path d="M91.2184 119.64C88.6264 119.64 86.6424 118.904 85.2664 117.432C83.8904 115.96 83.2024 113.88 83.2024 111.192V93.528C83.2024 90.84 83.8904 88.76 85.2664 87.288C86.6424 85.816 88.6264 85.08 91.2184 85.08C93.8104 85.08 95.7944 85.816 97.1704 87.288C98.5464 88.76 99.2344 90.84 99.2344 93.528V111.192C99.2344 113.88 98.5464 115.96 97.1704 117.432C95.7944 118.904 93.8104 119.64 91.2184 119.64ZM91.2184 114.84C93.0424 114.84 93.9544 113.736 93.9544 111.528V93.192C93.9544 90.984 93.0424 89.88 91.2184 89.88C89.3944 89.88 88.4824 90.984 88.4824 93.192V111.528C88.4824 113.736 89.3944 114.84 91.2184 114.84Z" fill="#F8F9F7"/>
<path d="M52.6601 85.56H60.6281C63.3481 85.56 65.3321 86.2 66.5801 87.48C67.8281 88.728 68.4521 90.664 68.4521 93.288V94.632C68.4521 96.36 68.1641 97.768 67.5881 98.856C67.0441 99.944 66.1961 100.728 65.0441 101.208V101.304C67.6681 102.2 68.9801 104.536 68.9801 108.312V111.192C68.9801 113.784 68.2921 115.768 66.9161 117.144C65.5721 118.488 63.5881 119.16 60.9641 119.16H52.6601V85.56ZM60.0041 99.24C61.0601 99.24 61.8441 98.968 62.3561 98.424C62.9001 97.88 63.1721 96.968 63.1721 95.688V93.816C63.1721 92.6 62.9481 91.72 62.5001 91.176C62.0841 90.632 61.4121 90.36 60.4841 90.36H57.9401V99.24H60.0041ZM60.9641 114.36C61.8921 114.36 62.5801 114.12 63.0281 113.64C63.4761 113.128 63.7001 112.264 63.7001 111.048V108.12C63.7001 106.584 63.4281 105.528 62.8841 104.952C62.3721 104.344 61.5081 104.04 60.2921 104.04H57.9401V114.36H60.9641Z" fill="#F8F9F7"/>
<path d="M7.57987 119.928C6.26787 119.928 5.06787 119.496 3.97987 118.632C2.92387 117.768 2.07587 116.568 1.43587 115.032C0.827869 113.496 0.523869 111.736 0.523869 109.752C0.523869 107.064 1.05187 104.904 2.10787 103.272C3.19587 101.608 4.50787 100.568 6.04387 100.152L2.49187 90.36V85.56H14.6839L14.4439 91.896H9.49987L13.7239 103.464C13.9479 102.152 14.1399 100.552 14.2999 98.664H19.4359C19.2119 101.128 18.8599 103.384 18.3799 105.432C17.9319 107.48 17.2919 109.32 16.4599 110.952L19.4359 119.16H12.9559L12.2359 117.192C11.5319 118.184 10.7799 118.888 9.97987 119.304C9.21187 119.72 8.41187 119.928 7.57987 119.928ZM6.52387 108.696C6.52387 110.008 6.69987 111.112 7.05187 112.008C7.43587 112.872 7.91587 113.304 8.49187 113.304C9.06787 113.304 9.64387 112.76 10.2199 111.672L7.81987 104.952C7.49987 105.08 7.19587 105.448 6.90787 106.056C6.65187 106.632 6.52387 107.512 6.52387 108.696Z" fill="#F8F9F7"/>
</svg>
